# xmcd
# Track frame offsets:
# 150
# 8330
# 17760
# 26821
# 38539
# 49787
# 55515
# 66669
# 78561
# 90727
# 100624
# 110741
#
# Disc length: 1637 seconds
# Revision: 0
# Processed by: cddbd v1.5.2PL0 Copyright (c) Steve Scherf et al.
# Submitted via: VisiTrax 2.11.3.279 - For more info visit www.synapsa.com
#
DISCID=8d06630c
DTITLE=Johnny Cash - Now Here's Johnny Cash
DYEAR=1961
DGENRE=Country
TTITLE0=Sugartime
TTITLE1=Down The Street To 301
TTITLE2=Life Goes On
TTITLE3=Port Of Lonely Hearts
TTITLE4=Cry Cry Cry
TTITLE5=My Treasure
TTITLE6=Oh Lonesome Me
TTITLE7=So Doggone Lonesome
TTITLE8=You're The Nearest Thing To Heaven
TTITLE9=Story Of A Broken Heart
TTITLE10=Hey Porter
TTITLE11=Home Of The Blues
EXTD=Pickwick Group Limited
EXTT0=
EXTT1=
EXTT2=
EXTT3=
EXTT4=
EXTT5=
EXTT6=
EXTT7=
EXTT8=
EXTT9=
EXTT10=
EXTT11=
PLAYORDER=
